<svg width="356" height="389" viewBox="0 0 356 389" fill="none" xmlns="http://www.w3.org/2000/svg">
<path d="M39.1218 378.327C43.4224 375.349 47.1855 372.646 51.0442 370.099C60.4579 363.885 69.2934 356.954 77.3858 349.068C85.6598 341.012 91.9364 331.574 96.8869 321.207C100.397 313.856 103.407 306.318 105.039 298.298C105.446 296.423 105.705 294.519 105.816 292.603C105.878 291.169 105.338 290.861 104.036 290.83C98.7195 290.696 98.8127 290.67 98.1078 295.299C96.3207 307.057 92.7822 318.179 85.784 327.97C77.4766 339.595 66.56 347.5 52.6067 350.975C46.765 352.43 40.7942 351.895 34.9119 351.589C24.067 351.025 14.7823 346.16 6.03048 340.118C5.36865 339.662 4.71161 339.179 4.38428 338.206C7.33024 337.41 10.3455 337.458 13.2938 337.071C22.0791 335.914 30.7354 334.327 37.9176 328.632C46.0004 322.22 50.6476 313.799 51.9067 303.539C53.3522 291.755 49.7133 280.883 45.783 270.098C41.4322 258.163 36.0563 246.606 32.5919 234.346C29.536 223.539 27.1826 212.598 26.019 201.404C25.0514 192.084 24.9869 182.763 25.3333 173.443C26.0167 154.996 30.8549 137.476 37.7575 120.443C44.3423 104.207 52.9771 89.2009 64.2783 75.8106C80.2218 56.9476 98.839 41.3443 120.732 29.7631C140.563 19.2741 161.638 12.5012 183.698 8.73246C194.188 6.98457 204.773 5.8673 215.397 5.38668C223.089 5.03849 230.796 5.11827 238.479 5.62566C261.545 7.03806 283.933 11.8918 305.618 19.8405C316.472 23.7739 327.015 28.5201 337.156 34.0385C338.769 34.9204 340.365 35.8596 341.906 37.3604C340.692 37.9531 339.598 38.455 338.534 39.0142C331.677 42.6181 325.68 47.4623 319.609 52.1894C315.115 55.6881 310.468 59.0459 306.521 63.166C297.63 72.4481 289.894 82.6026 283.746 93.9352C281.768 97.5797 279.737 101.205 278.402 105.129C276.865 109.651 273.121 112.12 269.838 115.081C263.999 120.338 258.456 125.895 254.27 132.636C253.998 133.079 253.735 133.525 253.498 133.987C251.976 136.95 252 137.093 254.822 138.766C260.941 142.425 266.496 146.832 271.869 151.488C274.975 154.183 274.918 154.1 278.203 151.452C284.192 146.624 290.232 141.859 296.323 137.156C298.557 135.425 298.631 135.521 299.26 138.257C304.841 162.512 311.381 186.515 319.344 210.087C327.742 234.941 336.726 259.621 348.916 282.977C349.597 284.284 350.11 285.68 350.691 287.04C351.126 288.062 351.078 288.626 349.664 288.626C342.773 288.626 335.93 287.981 329.075 287.388C323.475 286.91 317.846 286.672 312.243 286.342C311.493 286.299 310.769 286.225 310.941 287.474C313.402 305.336 316.513 323.05 322.98 339.987C327.028 350.552 331.706 360.866 336.989 370.871C337.593 372.057 338.132 373.275 338.604 374.52C339.082 375.736 338.948 376.272 337.345 375.954C328.153 374.164 318.947 372.493 309.737 370.753C295.102 367.988 280.478 365.171 265.839 362.442C260.36 361.419 255.173 359.514 249.977 357.607C249.212 357.327 248.414 357.143 247.652 356.864C246.247 356.35 245.516 356.799 245.43 358.298C245.136 363.555 244.828 368.787 244.539 374.032C244.367 377.139 244.137 380.246 244.089 383.353C244.063 385.054 243.423 385.434 241.91 384.94C237.827 383.608 233.928 381.833 229.945 380.239C217.564 375.316 206.439 368.11 195.141 361.218C188.068 356.916 180.982 352.615 173.941 348.248C172.703 347.481 171.826 347.493 170.62 348.377C156.931 358.398 141.698 365.345 125.67 370.632C115.915 373.848 105.887 375.918 95.6732 377.153C87.0718 378.193 78.4538 378.673 69.8046 379.015C64.1708 379.24 58.5441 379.362 52.9197 379.254C48.5283 379.185 44.1464 378.685 39.1218 378.327ZM328.762 367.797C328.323 366.746 328.024 365.914 327.637 365.123C319.822 349.111 313.493 332.573 309.682 315.135C307.324 304.352 305.113 293.538 305.051 282.425C305.037 279.588 305.051 279.605 307.854 279.796C317.605 280.499 327.355 281.213 337.108 281.868C342.087 282.202 342.066 282.162 340.004 277.674C336.207 269.412 331.928 261.361 328.674 252.867C315.533 218.53 303.252 183.915 295.994 147.745C295.571 145.642 294.871 145.429 293.337 146.925C288.451 151.705 282.901 155.622 277.4 159.618C276.387 160.354 275.358 161.341 274.211 161.561C272.629 161.864 272.467 159.933 271.583 159.082C264.771 152.568 257.462 146.691 249.296 141.976C243.8 138.802 243.717 138.941 246.906 133.313C247.016 133.119 247.145 132.93 247.243 132.734C251.374 125.149 257.223 118.966 263.559 113.257C268.921 108.425 273.248 102.981 276.146 96.306C279.369 88.8974 283.887 82.2369 288.699 75.7294C295.059 67.1259 301.917 59.0291 310.083 52.1273C315.71 47.3256 321.643 42.8951 327.845 38.8636C329.563 37.7571 329.348 37.0832 327.807 36.1201C325.506 34.643 323.118 33.307 320.656 32.1195C310.984 27.5931 300.858 24.3334 290.608 21.4417C279.209 18.2273 267.748 15.2281 256.014 13.4835C239.007 10.9478 221.939 10.6587 204.812 12.0711C187.641 13.4883 170.813 16.6118 154.358 21.7738C140.501 26.1138 127.663 32.5282 115.248 39.994C97.8474 50.4424 82.2766 62.9365 69.7067 79.013C62.8376 87.8029 55.7701 96.4398 50.5066 106.367C38.6535 128.736 32.5561 152.663 31.469 177.852C30.4463 201.548 34.8617 224.406 42.9661 246.632C47.0708 257.879 52.0214 268.8 55.61 280.24C59.084 291.317 60.1234 302.409 55.8155 313.509C53.4645 319.57 50.4564 325.279 46.4281 330.477C60.9524 324.006 71.0662 313.509 75.5986 297.866C77.0322 302.822 74.0934 314.057 68.1226 322.959C57.7771 338.4 42.7964 344.049 24.478 343.349C25.6842 344.258 27.0841 344.875 28.5684 345.153C41.3844 347.691 53.584 345.447 64.8852 339.365C75.2904 333.766 82.0878 324.613 86.6274 313.842C93.1621 298.384 93.4368 282.332 90.9138 266.03C89.9581 259.889 88.4743 253.842 87.8388 247.643C87.7143 246.694 87.7851 245.729 88.0468 244.808C88.3085 243.887 88.7556 243.029 89.3608 242.287C92.1371 238.717 95.666 236.093 99.4649 233.727C101.233 232.623 101.699 233.249 102.081 234.922C103.297 240.258 104.557 245.584 105.863 250.903C106.893 255.133 106.929 255.238 102.705 255.496C100.839 255.608 100.363 256.213 100.485 258.029C101.061 266.535 102.511 274.937 103.374 283.405C103.488 284.516 104.002 284.48 104.807 284.418C106.719 284.272 108.659 284.241 110.573 284.052C111.719 283.938 112.035 284.38 111.906 285.426C111.605 287.852 111.277 290.275 111.053 292.708C108.962 315.452 99.0564 334.531 83.7579 351.095C78.5016 356.782 72.2226 361.275 66.4454 366.354C63.8817 368.607 61.2105 370.737 58.1546 373.284C70.0675 372.957 81.3997 372.928 92.6579 371.712C111.294 369.7 128.975 364.272 145.862 356.242C154.399 352.139 162.465 347.118 169.917 341.27C171.539 340.01 172.748 339.81 174.502 341.069C179.245 344.47 184.183 347.593 188.936 350.98C197.63 357.172 207.027 362.148 216.412 367.135C223.007 370.64 229.759 373.815 236.668 376.659C238.138 377.266 238.819 377.335 238.852 375.304C239.003 367.823 239.404 360.348 239.629 352.87C239.784 347.72 239.717 347.734 244.687 349.357C253.613 352.273 262.496 355.332 271.482 358.037C286.114 362.451 301.162 364.968 316.24 367.238C320.257 367.821 324.311 368.423 328.762 367.797Z" fill="#F2C669"/>
<path d="M328.762 367.797C324.304 368.431 320.25 367.828 316.25 367.228C301.171 364.961 286.124 362.449 271.492 358.028C262.506 355.315 253.623 352.263 244.696 349.348C239.727 347.725 239.794 347.711 239.638 352.861C239.414 360.341 239.012 367.814 238.862 375.294C238.819 377.326 238.145 377.256 236.678 376.649C229.77 373.805 223.018 370.631 216.422 367.126C207.027 362.138 197.63 357.162 188.945 350.97C184.193 347.584 179.254 344.46 174.512 341.06C172.758 339.8 171.549 340.001 169.927 341.26C162.474 347.106 154.409 352.123 145.872 356.223C128.975 364.253 111.294 369.68 92.6675 371.693C81.4093 372.909 70.0771 372.938 58.1642 373.265C61.2201 370.715 63.8984 368.586 66.4549 366.335C74.2081 359.507 81.7128 352.125 84.102 349.873C84.102 349.873 109.189 328.843 111.899 285.505C111.913 285.266 112.064 284.628 111.712 284.263C111.504 284.045 111.141 283.969 110.58 284.024C108.668 284.212 106.736 284.243 104.815 284.389C104.009 284.451 103.496 284.487 103.381 283.376C102.518 274.909 101.068 266.506 100.492 258.001C100.371 256.194 100.846 255.58 102.712 255.467C106.936 255.209 106.9 255.104 105.871 250.874C104.576 245.557 103.315 240.23 102.088 234.893C101.706 233.22 101.24 232.604 99.4721 233.698C95.6732 236.071 92.1443 238.695 89.368 242.266C88.7628 243.008 88.3157 243.865 88.054 244.786C87.7923 245.707 87.7215 246.672 87.846 247.621C88.4815 253.821 89.9701 259.867 90.921 266.009C93.444 282.31 93.1693 298.363 86.6346 313.82C82.0807 324.591 75.2928 333.744 64.8924 339.344C53.5888 345.426 40.6222 348.425 28.5756 345.132C27.24 344.766 25.9307 344.384 24.4852 343.328C31.0532 339.788 49.6178 329.005 55.8227 313.488C56.4861 311.799 57.0525 310.073 57.5191 308.319C58.9144 302.858 59.863 293.774 55.6077 280.219C52.0238 268.779 47.0685 257.857 42.9637 246.611C34.8593 224.385 30.444 201.538 31.4666 177.843C32.5537 152.654 38.6511 128.727 50.5042 106.358C55.7606 96.4303 62.8233 87.7934 69.702 79.0059C82.2886 62.939 97.8522 50.4258 115.253 39.9869C127.677 32.533 140.513 26.1067 154.363 21.7667C170.818 16.6095 187.645 13.4812 204.817 12.064C221.943 10.6516 239.012 10.9407 256.019 13.4764C267.753 15.2281 279.214 18.2202 290.613 21.4346C300.863 24.3263 310.989 27.586 320.66 32.1124C323.122 33.3023 325.509 34.6415 327.807 36.1225C329.348 37.0785 329.563 37.7596 327.845 38.8661C321.643 42.8975 315.71 47.3281 310.083 52.1297C301.917 59.0316 295.06 67.1356 288.699 75.7318C283.887 82.2394 279.381 88.8903 276.146 96.3084C273.248 102.978 268.921 108.427 263.559 113.26C257.223 118.969 251.374 125.151 247.243 132.737C247.136 132.933 247.004 133.122 246.906 133.315C243.724 138.943 243.8 138.812 249.296 141.978C257.462 146.694 264.771 152.57 271.583 159.085C272.469 159.936 273.179 161.618 274.76 161.315C275.907 161.095 276.39 160.359 277.403 159.62C283.106 155.453 288.511 150.892 293.578 145.972C294.718 144.861 295.924 145.241 296.237 146.801C303.496 182.969 315.528 218.537 328.676 252.87C331.931 261.363 336.21 269.415 340.006 277.676C342.068 282.164 342.09 282.205 337.111 281.87C327.358 281.216 317.607 280.501 307.856 279.798C306.454 279.698 305.749 279.643 305.398 279.97C304.681 280.632 305.054 282.002 305.054 282.418C305.109 294.19 307.976 307.095 310.843 318.805C314.379 333.242 321.724 349.027 328.762 367.797ZM242.032 37.2816C242.51 36.8037 245.936 33.532 246.811 34.1748C247.415 34.6193 246.495 36.7224 245.676 38.8422C243.621 44.1668 242.716 48.2821 241.514 53.7572C240.625 57.7563 240.066 61.8215 239.841 65.912C239.729 67.9983 239.715 70.1635 239.815 72.5342C239.908 74.6851 239.939 76.8933 240.685 79.1828C240.723 79.3003 240.798 79.4024 240.899 79.4737C241 79.5451 241.121 79.5819 241.245 79.5787C241.368 79.5754 241.488 79.5324 241.585 79.4559C241.682 79.3793 241.752 79.2735 241.784 79.1541C242.243 77.4406 242.754 75.7342 243.11 73.9968C246.534 57.2942 251.577 41.1747 260.332 26.4102C261.084 25.1412 260.745 24.7182 259.553 24.4362C258.903 24.2833 258.248 24.1566 257.594 24.0347C244.214 21.5206 230.714 20.7128 217.119 21.0976C215.607 21.1406 215.089 21.8145 214.776 23.1433C212.984 30.7908 211.729 38.5172 210.475 46.2746C208.896 56.1375 209.904 65.7495 211.352 75.4307C211.526 76.585 212.069 77.0773 213.263 77.1204C216.075 77.2279 218.88 77.5577 221.695 77.5625C225.154 77.5625 224.856 77.866 225.537 77.6796C229.147 76.6902 229.837 70.4049 231.988 60.7117C235.483 45.008 239.361 39.877 242.032 37.2816ZM290.009 343.55C286.941 343.579 284.021 342.833 281.092 342.185C269.967 339.717 258.92 336.882 248.149 333.197C240.29 330.509 233.622 326.066 230.365 317.692C227.369 309.992 225.307 302.062 223.618 294.018C221.669 284.731 220.202 275.377 219.609 265.887C219.58 265.409 219.824 264.764 219.208 264.506C218.591 264.248 218.331 264.895 217.929 265.177C217.088 265.77 216.314 266.53 215.385 266.92C211.586 268.511 210.802 271.274 211.273 275.188C213.144 290.789 216.74 305.917 223.054 320.335C224.839 324.398 226.853 328.417 230.848 330.893C233.237 332.37 235.574 333.952 238.08 335.195C257.154 344.625 277.214 351.138 298.075 355.241C302.509 356.113 306.949 356.933 311.455 357.311C313.619 357.492 313.959 357.072 313.015 355.186C309.548 348.255 307.424 340.864 305.238 333.479C299.676 314.704 296.292 295.588 296.053 275.958C295.977 269.811 295.712 263.667 295.561 257.518C295.513 255.575 294.974 254.318 292.651 254.303C291.046 254.303 289.445 253.792 287.842 253.503C276.33 251.433 265.124 248.52 255.376 241.628C250.884 238.454 248.524 233.682 246.022 229.024C245.855 228.713 245.886 228.307 245.783 227.951C245.454 226.945 245.853 226.634 246.842 226.672C254.024 226.949 260.745 224.887 267.363 222.456C276.237 219.199 284.482 220.067 292.613 225.085C297.444 228.061 301.709 231.61 305.966 235.259C306.745 235.928 306.401 236.308 305.935 236.858C304.132 238.989 303.104 241.494 302.385 244.171C300.402 251.548 300.271 259.088 300.218 266.657C300.218 268.547 300.985 269.395 302.662 269.697C310.27 271.064 317.97 271.212 325.668 271.369C326.218 271.384 326.999 271.518 327.212 270.813C327.424 270.108 327.42 269.34 326.708 268.793C325.95 268.21 325.802 267.292 325.494 266.465C320.383 252.81 315.072 239.221 310.243 225.468C306.148 213.8 301.819 202.214 298.696 190.225C296.419 181.487 294.634 172.616 291.672 164.058C290.778 161.472 290.733 161.408 288.699 162.997C283.851 166.785 278.724 170.167 273.523 173.419C254.217 185.531 234.016 195.826 212.981 204.552C202.946 208.717 193.055 213.282 184.009 219.452C168.316 230.157 169.573 251.288 182.984 261.26C197.157 271.8 211.517 266.824 220.166 255.345C224.118 250.088 223.272 243.814 222.732 237.766C222.565 235.854 221.578 234.14 220.632 232.441C214.897 222.112 204.956 220.035 194.369 218.757C221.224 209.929 245.212 195.097 270.185 181.941C270.233 182.921 269.743 183.022 269.401 183.261C255.066 193.312 240.722 203.363 226.371 213.413C224.053 215.036 221.831 216.733 220.354 219.225C219.423 220.795 219.466 222.076 221.004 223.276C224.259 225.817 226.199 229.265 227.644 233.075C228.771 236.047 229.735 239.078 230.53 242.156C231.94 247.571 233.789 252.855 237.361 257.19C241.547 262.264 246.027 267.125 251.921 270.373C252.691 270.798 253.226 271.4 253.295 272.471C254.215 286.829 256.781 300.96 259.328 315.092C260.195 319.902 261.213 324.63 264.627 328.525C268.978 333.489 274.423 336.806 280.272 339.564C283.441 341.048 286.759 342.226 290.009 343.55ZM200.844 137.127C199.494 137.865 197.391 139.039 194.84 140.473C172.266 153.23 160.859 159.78 154.358 168.178C151.434 171.957 144.185 181.588 144.636 194.165C144.684 195.49 144.815 196.81 145.028 198.118C145.21 199.397 145.678 202.286 148.223 209.561C150.115 214.967 150.641 215.626 151.446 216.035C152.428 216.534 154.313 216.494 158.542 214.711C168.443 210.545 180.072 208.258 190.634 204.413C204.387 199.394 217.872 193.707 231.271 187.835C240.888 183.626 249.071 177.08 258.193 172.107C260.458 170.869 262.546 169.311 264.706 167.887C265.631 167.28 265.798 166.723 264.811 165.882C261.49 163.05 258.408 159.907 254.934 157.278C240.778 146.584 224.939 139.806 207.261 137.655C183.256 134.735 164.142 143.427 163.887 142.547C163.736 142.036 170.249 139.278 177.302 137.715C185.039 136.011 193.031 135.812 200.844 137.127ZM137.05 146.615C138.596 145.63 140.823 144.253 143.556 142.702C148.299 140.012 158.014 134.082 169.58 130.976C184.269 127.03 199.097 125.106 214.142 128.777C220.61 130.357 227.006 132.245 233.395 134.125C235.216 134.663 235.942 134.324 236.566 132.452C239.211 124.549 244.486 118.228 249.931 112.227C253.771 107.995 258.076 104.044 262.895 100.82C264.475 99.7617 263.715 99.2647 262.606 98.7771C260.711 97.9431 258.836 97.0302 256.872 96.3873C235.791 89.6192 214.317 86.1826 192.097 88.7207C175.097 90.6636 158.8 94.9629 143.382 102.403C130.241 108.738 118.985 117.681 108.635 127.883C92.388 143.926 82.5299 163.377 77.6845 185.536C74.8317 198.577 75.202 211.74 76.1888 224.925C76.5209 229.356 77.1636 233.768 78.5088 238.019C78.6784 238.552 78.8074 239.267 79.4382 239.453C80.155 239.666 80.4751 239.013 80.7833 238.535C83.7436 233.942 87.8603 230.391 91.6306 226.533C92.7989 225.339 93.3628 224.177 93.2075 222.437C92.4382 213.779 92.4668 205.123 93.843 196.51C96.4927 179.893 103.018 164.871 112.957 151.378C116.978 145.912 126.22 134.828 141.552 125.45C146.151 122.637 162.14 113.353 183.971 110.872C195.955 109.51 206.81 110.533 211.251 110.968C215.863 111.417 220.464 111.971 225.002 112.999C218.006 112.736 211.001 112.989 204.043 113.757C196.78 114.547 189.59 115.906 182.54 117.819C170.287 121.177 158.886 124.224 148.359 133.456C143.994 137.291 140.189 141.72 137.058 146.615H137.05ZM202.71 24.3526C202.784 24.1279 203.14 23.1337 202.691 22.6151C202.452 22.3355 201.936 22.2686 201.018 22.3762C194.691 23.1218 188.4 24.0777 182.143 25.244C174.072 26.7544 166.011 28.3508 158.324 31.3787C155.054 32.6668 154.893 32.686 155.247 36.2301C155.852 42.489 156.788 48.7113 158.052 54.8709C159.897 63.7133 163.547 72.0371 167.425 80.2033C167.741 80.8652 168.085 81.293 168.536 81.5081C169.205 81.8283 169.91 81.6348 170.209 81.5607C173.816 80.6047 177.501 79.9643 181.13 79.0896C182.549 78.7478 182.767 78.7335 182.927 78.669L183.017 78.626C183.354 78.4419 186.625 76.2361 187.318 75.5813C191.686 71.4564 201.788 27.1367 202.71 24.3526ZM134.707 54.1014C134.635 53.5135 134.592 52.7846 135.306 52.6674C135.935 52.5623 135.966 53.3462 136.233 53.7548C136.334 53.9517 136.42 54.1553 136.491 54.3642C140.83 63.7205 145.853 72.6681 152.375 80.6956C153.161 81.6515 154.117 83.702 155.082 83.1189C156.196 82.4497 154.793 80.772 154.332 79.6345C149.021 66.5262 145.389 52.9925 143.834 38.9258C143.559 36.438 142.106 37.4465 141.024 37.9341C126.87 44.3102 113.509 51.9481 101.522 61.9138C99.5343 63.5651 99.453 64.8174 100.664 66.8775C105.512 75.1721 111.1 83.0109 117.361 90.298C119.972 93.3235 122.617 96.318 126.007 98.5405C126.707 98.9994 127.266 99.7163 128.511 98.6242C132.157 95.3976 136.477 93.025 141.155 91.6793C143.248 91.0842 143.11 90.329 142.756 89.2536C141.69 86.0201 140.763 82.7365 139.621 79.5269C136.704 71.2963 135.581 62.7263 134.707 54.1014ZM308.076 40.8377C308.3 40.6459 308.47 40.3995 308.57 40.1225C308.67 39.8455 308.697 39.5472 308.647 39.2568C308.598 38.9664 308.474 38.6937 308.289 38.4652C308.103 38.2368 307.861 38.0604 307.586 37.9532C305.099 36.9805 302.712 36.0413 300.342 35.0854C292.935 32.0742 285.529 29.0749 277.608 27.6529C273.499 26.9145 273.047 27.0913 270.957 30.4371C264.527 40.7134 260.356 52.0055 256.621 63.4504C254.736 69.2267 253.993 75.2873 252.903 81.2572C252.76 82.0458 252.366 82.9301 252.731 83.5753C252.937 83.9338 253.333 84.082 253.687 84.2349C254.311 84.4869 254.979 84.6112 255.651 84.6006C257.985 84.493 271.2 55.7169 287.533 45.7512C291.595 43.2682 298.077 40.6011 308.081 40.8377H308.076ZM55.9852 251.45L56.5156 251.29C56.3866 249.715 56.2289 247.433 56.1333 244.68C55.8801 237.333 55.4166 219.935 61.3085 200.864C65.8361 186.205 68.1011 178.878 68.935 177.556C69.6518 176.421 70.1057 175.118 70.4785 172.425C70.6481 171.197 70.347 170.838 69.2193 170.805C67.5922 170.759 65.9651 170.657 64.3381 170.566C57.4307 170.202 50.7193 168.604 43.9553 167.339C42.9279 167.146 41.836 166.783 41.7571 168.496C41.4035 176.034 40.4741 183.578 41.1837 191.121C42.7774 208.024 45.1571 224.782 51.4575 240.722C52.8935 244.326 54.0141 248.066 55.9852 251.45ZM115.1 106.79C114.895 105.168 114.061 104.589 113.449 103.872C111.913 102.073 110.245 100.374 108.831 98.4832C102.812 90.4318 96.5644 82.5357 91.5087 73.8056C90.553 72.159 89.8363 72.0682 88.4218 73.4328C81.9135 79.7348 76.0622 86.5961 70.6003 93.8015C67.1526 98.3422 63.8506 102.988 61.416 108.176C60.9883 109.085 60.4244 110.002 61.8938 110.705C67.0188 113.147 71.8141 116.29 76.9247 118.653C82.5968 121.282 88.4696 123.567 94.2994 125.897C94.9947 126.174 95.4176 126.22 95.9719 125.505C98.0577 122.795 100.547 120.46 103.209 118.336C103.742 117.91 104.002 117.54 104.05 117.157C104.141 116.44 103.541 115.936 103.414 115.635C103.037 114.734 105.512 112.373 115.1 106.79ZM87.6262 135.982C86.7828 135.06 86.2428 134.787 85.5929 134.548C83.3685 133.769 81.1441 132.973 78.9842 132.037C72.1892 129.09 65.8433 125.295 59.3182 121.808C55.5886 119.813 55.3592 119.781 53.6198 123.593C49.1997 133.277 46.452 143.489 44.3208 153.887C44.0556 155.177 44.3065 155.782 45.7353 155.935C48.3635 156.222 51.0657 156.413 53.6007 157.13C60.121 158.965 66.7416 159.14 73.4316 158.872C74.6262 158.824 75.4648 158.366 76.0311 157.175C77.6869 153.701 79.431 150.266 81.2254 146.858C81.5336 146.273 81.6363 145.871 81.5025 145.575C81.2636 145.059 80.4942 144.947 80.3365 144.918C79.302 144.729 74.6023 142.468 61.4136 135.253C70.0853 136.638 78.9013 136.879 87.6357 135.97L87.6262 135.982ZM127.964 261.688C119.413 262.353 113.196 262.847 112.14 262.917C111.986 262.914 111.833 262.942 111.69 263.001C111.548 263.059 111.419 263.146 111.311 263.256C111.019 263.624 111.168 264.212 111.242 264.733C111.662 267.658 112.173 270.569 112.541 273.496C112.754 275.169 113.497 275.779 115.191 275.499C119.702 274.746 124.23 274.101 128.743 273.348C129.993 273.14 130.033 273.064 130.045 273.092C130.263 273.606 116.211 282.69 111.17 278.795C109.631 277.6 109.309 275.246 108.666 270.526C108.064 266.124 107.686 263.356 108.917 261.504C111.211 258.048 119.038 258.032 127.964 261.688Z" fill="#1F1D25"/>
<path d="M329.479 271.486C329.799 272.254 327.245 272.043 324.462 271.964C318.317 271.79 315.244 271.701 302.653 269.694C302.318 269.639 301.424 269.498 300.822 268.8C300.402 268.322 300.201 267.62 300.208 266.649C300.261 259.081 300.392 251.541 302.375 244.163C303.092 241.487 304.122 238.982 305.926 236.85C306.392 236.301 306.736 235.921 305.957 235.252C301.699 231.602 297.434 228.053 292.603 225.078C284.48 220.059 276.227 219.192 267.354 222.449C260.735 224.88 254.014 226.942 246.832 226.665C245.843 226.627 245.444 226.937 245.774 227.943C245.886 228.292 245.855 228.706 246.013 229.016C249.788 236.045 255.367 241.621 255.367 241.621C264.286 248.436 275.601 249.641 280.968 250.224C286.054 250.766 292.422 250.841 294.754 254.973C295.218 255.747 295.491 256.621 295.552 257.523C295.702 263.672 295.967 269.816 296.044 275.963C296.283 295.593 299.666 314.709 305.228 333.484C307.414 340.868 309.529 348.265 313.005 355.191C313.961 357.072 313.61 357.497 311.445 357.315C306.939 356.938 302.5 356.12 298.065 355.246C277.205 351.142 257.144 344.63 238.071 335.2C235.564 333.959 233.223 332.377 230.839 330.898C225.752 327.743 224.048 322.553 223.045 320.34C214.4 301.285 211.775 269.794 200.139 267.017C198.12 266.539 198.385 267.529 194.84 267.256C186.386 266.635 176.81 260.407 173.293 250.468C170.025 241.224 173.532 233.084 174.473 230.959C176.703 225.986 179.799 222.311 184.009 219.44C193.055 213.27 202.934 208.705 212.981 204.54C234.007 195.814 254.222 185.519 273.513 173.417C278.717 170.152 283.842 166.783 288.69 162.995C290.723 161.405 290.768 161.47 291.662 164.056C294.613 172.614 296.409 181.485 298.686 190.222C300.328 196.524 303.042 206.282 310.234 225.465C315.767 240.234 318.883 247.466 320.878 251.878C325.417 261.927 328.285 268.619 329.479 271.486Z" fill="#F2C669"/>
<path d="M162.52 149.994C179.364 135.282 200.015 137.031 207.261 137.646C214.19 138.233 219.504 139.842 223.578 141.08C234.845 144.504 245.279 149.975 254.934 157.273C258.408 159.902 261.49 163.038 264.811 165.877C265.798 166.718 265.631 167.275 264.706 167.882C262.556 169.316 260.458 170.864 258.193 172.102C249.071 177.088 240.888 183.626 231.281 187.842C217.311 193.972 215.609 194.087 190.644 204.42C163.124 215.813 157.108 220.432 151.221 216.807C143.193 211.872 143.982 196.985 144.577 189.395C145.078 182.974 146.572 163.924 162.52 149.994Z" fill="#F2C669"/>
<path d="M138.219 148.742C121.888 152.326 113.827 177.448 112.666 181.067C106.585 200.013 112.028 208.533 103.147 218.91C99.8019 222.81 97.0279 223.95 93.1263 229.937C89.896 234.888 88.1566 239.692 83.1057 242.216C80.8311 243.351 79.1825 243.375 78.0883 243.217C75.2618 242.808 73.4555 240.734 72.5834 239.702C68.7606 235.199 68.6005 229.241 68.5742 227.422C68.2302 204.544 72.8319 187.328 72.8319 187.328C78.2364 167.117 85.2059 153.438 86.8616 150.242C91.4012 141.51 95.2049 134.159 102.153 126.186C114.08 112.48 127.24 106.126 139.483 100.376C143.92 98.2896 162.869 89.6336 189.836 86.0918C189.836 86.0918 218.187 82.3708 253.971 91.3495C254.781 91.5526 255.947 92.4822 257.981 93.1036C260.446 93.8588 261.849 93.7274 264.494 94.8578C265.746 95.3931 266.369 95.6607 266.749 96.11C269 98.7914 265.414 105.158 264.995 105.885C261.758 111.508 258.888 110.719 253.221 116.4C249.064 120.572 242.453 129.181 239.442 134.19C239.067 134.814 238.083 136.498 236.186 137.199C233.957 138.018 231.706 137.029 230.929 136.697C225.068 134.204 218.481 133.717 212.64 131.183C201.13 126.193 181.969 128.461 169.298 135.944C162.021 140.246 157.44 145.936 146.502 147.972C141.781 148.866 141.444 148.034 138.219 148.742Z" fill="#1F1D25"/>
<path d="M315.837 38.6773C316.034 38.7696 316.202 38.9165 316.319 39.1006C316.436 39.2848 316.499 39.4986 316.499 39.7169C316.499 39.9352 316.436 40.149 316.319 40.3332C316.202 40.5173 316.034 40.6642 315.837 40.7565C307.854 44.5133 294.899 52.0796 284.014 66.2992C278.135 73.9908 273.605 82.6255 270.617 91.8347C270.536 92.0843 270.401 92.3135 270.224 92.5068C270.046 92.7002 269.829 92.8532 269.587 92.9556C269.345 93.0579 269.085 93.1073 268.822 93.1002C268.56 93.0932 268.302 93.03 268.066 92.9149C254.447 86.3069 225.929 75.0603 189.566 78.8148C177.876 80.0264 134.477 85.9843 101.381 121.667C85.3062 138.993 78.1169 156.21 73.3217 168.03C57.7915 206.268 58.8929 241.234 61.2511 261.368C61.2526 261.386 61.248 261.403 61.2382 261.418C61.2284 261.433 61.214 261.444 61.1971 261.449C61.1803 261.455 61.1621 261.455 61.1454 261.448C61.1288 261.442 61.1147 261.431 61.1054 261.416C58.4868 256.848 55.8801 252.113 53.2853 247.211C51.7243 244.258 50.2191 241.336 48.7696 238.445C48.7696 238.445 36.0301 210.87 38.2569 175.047C41.6783 119.875 85.2967 75.144 91.1217 69.3056C105.366 57.2201 143.356 28.2648 200.851 20.9423C255.259 14.0141 297.523 30.2268 315.837 38.6773Z" fill="#F2C669"/>
</svg>
